<?xml version="1.0" encoding="utf-8"?>
<!-- Generator: Adobe Illustrator 24.2.0, SVG Export Plug-In . SVG Version: 6.00 Build 0)  -->
<svg version="1.1" id="Layer_1" xmlns="http://www.w3.org/2000/svg" xmlns:xlink="http://www.w3.org/1999/xlink" x="0px" y="0px"
	 viewBox="0 0 102.52 102.52" style="enable-background:new 0 0 102.52 102.52;" xml:space="preserve">
<style type="text/css">
	.st0{fill:#FFFFFF;stroke:#000000;stroke-width:2.5214;stroke-miterlimit:10;}
	.st1{fill:none;stroke:#000000;stroke-width:2.1934;stroke-miterlimit:10;}
</style>
<circle class="st0" cx="51.26" cy="51.26" r="50"/>
<g>
	<path d="M34.18,32.4v5.21H31V22.68h5.14c3.71,0,5.57,1.57,5.57,4.72c0,1.53-0.56,2.75-1.68,3.68c-1.12,0.92-2.52,1.36-4.21,1.33
		H34.18z M34.18,25.14v4.82h1.38c1.87,0,2.81-0.81,2.81-2.44c0-1.59-0.93-2.38-2.78-2.38H34.18z"/>
	<path d="M58.27,37.61h-3.66l-2.34-3.88c-0.48-0.8-0.88-1.32-1.19-1.55c-0.31-0.23-0.64-0.35-0.98-0.35h-0.96v5.78h-3.18V22.68h5.23
		c3.55,0,5.33,1.35,5.33,4.05c0,1.02-0.3,1.89-0.89,2.61c-0.59,0.73-1.41,1.24-2.45,1.53v0.04c0.69,0.23,1.45,0.99,2.28,2.27
		L58.27,37.61z M49.13,25.1v4.3h1.56c0.75,0,1.34-0.22,1.8-0.65c0.45-0.43,0.68-0.98,0.68-1.62c0-1.35-0.81-2.02-2.42-2.02H49.13z"
		/>
	<path d="M70.55,37.61h-8.84V22.68h8.49v2.6h-5.31v3.52h4.94v2.59h-4.94V35h5.66V37.61z"/>
</g>
<g>
	<path d="M40.95,70.31c0,4.45-2.07,6.68-6.21,6.68c-4,0-6-2.17-6-6.51V61.8h3.19v8.7c0,2.49,0.98,3.73,2.94,3.73
		c1.93,0,2.89-1.2,2.89-3.6V61.8h3.18V70.31z"/>
	<path d="M46.21,76.73V61.8h5.16c5.3,0,7.95,2.43,7.95,7.28c0,2.31-0.74,4.16-2.23,5.56s-3.4,2.1-5.74,2.1H46.21z M49.39,64.4v9.73
		h1.74c1.51,0,2.7-0.45,3.56-1.35c0.86-0.9,1.29-2.12,1.29-3.65c0-1.48-0.45-2.64-1.35-3.47c-0.9-0.83-2.07-1.25-3.51-1.25H49.39z"
		/>
	<path d="M72.64,76.73H63.8V61.8h8.49v2.6h-5.31v3.52h4.94v2.59h-4.94v3.61h5.66V76.73z"/>
</g>
<polyline class="st1" points="43,47.79 51.26,54.73 59.52,47.79 "/>
</svg>
