<?xml version="1.0" encoding="utf-8"?>
<!-- Generator: Adobe Illustrator 24.2.0, SVG Export Plug-In . SVG Version: 6.00 Build 0)  -->
<svg version="1.1" id="Layer_1" xmlns="http://www.w3.org/2000/svg" xmlns:xlink="http://www.w3.org/1999/xlink" x="0px" y="0px"
	 viewBox="0 0 128 128" style="enable-background:new 0 0 128 128;" xml:space="preserve">
<style type="text/css">
	.st0{fill:#FFFFFF;stroke:#010101;stroke-width:3.1516;stroke-miterlimit:10;}
	.st1{fill:#010101;}
	.st2{fill:none;stroke:#010101;stroke-width:2.7476;stroke-miterlimit:10;}
</style>
<circle class="st0" cx="64.06" cy="64.06" r="62.5"/>
<g>
	<path class="st1" d="M42.52,40.29v6.53h-3.98v-18.7h6.44c4.65,0,6.98,1.97,6.98,5.91c0,1.92-0.7,3.44-2.1,4.61
		c-1.4,1.15-3.16,1.7-5.27,1.67h-2.05V40.29z M42.52,31.2v6.04h1.73c2.34,0,3.52-1.01,3.52-3.06c0-1.99-1.16-2.98-3.48-2.98H42.52z"
		/>
	<path class="st1" d="M72.7,46.82h-4.58l-2.93-4.86c-0.6-1-1.1-1.65-1.49-1.94c-0.39-0.29-0.8-0.44-1.23-0.44h-1.2v7.24h-3.98v-18.7
		h6.55c4.45,0,6.68,1.69,6.68,5.07c0,1.28-0.38,2.37-1.11,3.27c-0.74,0.91-1.77,1.55-3.07,1.92v0.05c0.86,0.29,1.82,1.24,2.86,2.84
		L72.7,46.82z M61.25,31.15v5.39h1.95c0.94,0,1.68-0.28,2.25-0.81c0.56-0.54,0.85-1.23,0.85-2.03c0-1.69-1.01-2.53-3.03-2.53h-2.03
		V31.15z"/>
	<path class="st1" d="M88.08,46.82H77.01v-18.7h10.64v3.26h-6.65v4.41h6.19v3.24h-6.19v4.52h7.09V46.82z"/>
</g>
<g>
	<path class="st1" d="M51,87.78c0,5.57-2.59,8.37-7.78,8.37c-5.01,0-7.52-2.72-7.52-8.15V77.12h4v10.9c0,3.12,1.23,4.67,3.68,4.67
		c2.42,0,3.62-1.5,3.62-4.51V77.12h3.98v10.66H51z"/>
	<path class="st1" d="M57.59,95.82v-18.7h6.46c6.64,0,9.96,3.04,9.96,9.12c0,2.89-0.93,5.21-2.79,6.96
		c-1.87,1.75-4.26,2.63-7.19,2.63h-6.44V95.82z M61.58,80.38v12.19h2.18c1.89,0,3.38-0.56,4.46-1.69c1.08-1.13,1.62-2.66,1.62-4.57
		c0-1.85-0.56-3.31-1.69-4.35s-2.59-1.57-4.4-1.57h-2.17V80.38z"/>
	<path class="st1" d="M90.7,95.82H79.63v-18.7h10.64v3.26h-6.65v4.41h6.19v3.24h-6.19v4.52h7.09V95.82z"/>
</g>
<polyline class="st2" points="53.57,59.57 63.92,68.27 74.27,59.57 "/>
</svg>
